<mxfile host="app.diagrams.net" modified="2023-08-26T22:50:24.729Z" agent="Mozilla/5.0 (Windows NT 10.0; Win64; x64; rv:109.0) Gecko/20100101 Firefox/116.0" version="21.6.9" etag="sGojV3N8ig01VfGS7MhW" type="github">
  <diagram name="Page-1" id="D5alb9Moifd8iYm64lUn">
    <mxGraphModel>
      <root>
        <mxCell id="0" />
        <mxCell id="1" parent="0" />
      </root>
    </mxGraphModel>
  </diagram>
</mxfile>
